<svg width="512" height="512" viewBox="0 0 512 512" xmlns="http://www.w3.org/2000/svg">
  <defs>
    <radialGradient id="bg" cx="50%" cy="35%" r="75%">
      <stop offset="0%" stop-color="#1a1a1a"/>
      <stop offset="100%" stop-color="#050505"/>
    </radialGradient>
    <linearGradient id="gold" x1="0%" y1="0%" x2="100%" y2="100%">
      <stop offset="0%" stop-color="#f6e9c7"/>
      <stop offset="45%" stop-color="#d4af37"/>
      <stop offset="100%" stop-color="#a9821b"/>
    </linearGradient>
    <linearGradient id="goldSoft" x1="0%" y1="0%" x2="0%" y2="100%">
      <stop offset="0%" stop-color="#e8c468"/>
      <stop offset="100%" stop-color="#c9a227"/>
    </linearGradient>
  </defs>

  <rect width="512" height="512" rx="96" fill="url(#bg)"/>
  <rect x="20" y="20" width="472" height="472" rx="80" fill="none" stroke="url(#gold)" stroke-width="3" opacity="0.55"/>

  <!-- Corner accents -->
  <path d="M56 56 L146 56 L56 146 Z" fill="url(#gold)" opacity="0.9"/>
  <path d="M456 456 L366 456 L456 366 Z" fill="url(#gold)" opacity="0.9"/>

  <!-- Monogram: stylised D + N forming a roof / wrench-like mark for handyman services -->
  <g transform="translate(256,238)">
    <path d="M-92 70 L-92 -30 C-92 -76 -56 -112 -10 -112 L10 -112 C56 -112 92 -76 92 -30 L92 70"
          fill="none" stroke="url(#gold)" stroke-width="18" stroke-linecap="round" stroke-linejoin="round"/>
    <path d="M-58 70 L-58 -22 C-58 -50 -35 -72 -7 -72 L7 -72 C35 -72 58 -50 58 -22 L58 70"
          fill="none" stroke="url(#goldSoft)" stroke-width="10" stroke-linecap="round" stroke-linejoin="round" opacity="0.85"/>
    <circle cx="0" cy="70" r="9" fill="url(#gold)"/>
  </g>

  <text x="256" y="372" text-anchor="middle" font-family="'Prompt','Sarabun',sans-serif" font-weight="700"
        font-size="46" fill="url(#gold)" letter-spacing="2">DAY NERAMIT</text>
  <text x="256" y="404" text-anchor="middle" font-family="'Sarabun',sans-serif" font-weight="500"
        font-size="19" fill="#e8c468" letter-spacing="6" opacity="0.85">เดย์ เนรมิต</text>

  <rect x="196" y="418" width="120" height="2" fill="url(#gold)" opacity="0.7"/>
</svg>
